# xmcd
#
# Track frame offsets:
#	150
#	5635
#	19896
#	32628
#	50276
#	62680
#	77002
#	96342
#	106017
#	118626
#	134185
#	148130
#	167011
#	183120
#	206265
#	219445
#	239238
#	256810
#	268360
#	283168
#	291270
#
# Disc length: 4078 seconds
#
# Revision: 1
# Processed by: cddbd v1.5.2PL0 Copyright (c) Steve Scherf et al.
# Submitted via: audiograbber 1.83.01
#
DISCID=400fec15
DTITLE=Tony ac Aloma - Goreuon
DYEAR=2006
DGENRE=Pop
TTITLE0=Tony Ac Aloma
TTITLE1=Beth sydd o'i le
TTITLE2=Caffi Gaerwen
TTITLE3=Hitia mono fi
TTITLE4=Diolch i ti
TTITLE5=Mae'n ddiwrnod braf
TTITLE6=Ddoi di'm yn ol i Gymru
TTITLE7=Mae gen i gariad
TTITLE8=Biti na faswni
TTITLE9=Trawsfyndd
TTITLE10=Popeth yn iawn 'da fi
TTITLE11=Yr eneth gadd ei gwrthod
TTITLE12=Yr hen ysgol yn y wlad
TTITLE13=Oes, mae 'na le
TTITLE14=Yr Hogan Goch
TTITLE15=Wedi colli rhywbeth sy'n annwyl
TTITLE16=O mae'n braf cael bod mewn cariad
TTITLE17=Rhywbeth bach i'w ddweud
TTITLE18=Cloch bach yr eglwys
TTITLE19=Tri mochyn bach
TTITLE20=Dim ond ti a mi
EXTD=Sain SCD2217
EXTT0=
EXTT1=
EXTT2=
EXTT3=
EXTT4=
EXTT5=
EXTT6=
EXTT7=
EXTT8=
EXTT9=
EXTT10=
EXTT11=
EXTT12=
EXTT13=
EXTT14=
EXTT15=
EXTT16=
EXTT17=
EXTT18=
EXTT19=
EXTT20=
PLAYORDER=
